0
SECTION
2
HEADER
9
$ACADVER
1
AC1015
0
ENDSEC
0
SECTION
2
ENTITIES
0
LWPOLYLINE
8
GEOM_MAIN
90
7
70
1
10
0
20
0
10
420
20
0
10
500
20
80
10
500
20
300
10
390
20
360
10
100
20
360
10
0
20
280
0
CIRCLE
8
DETAIL_C
10
35
20
35
40
6
0
CIRCLE
8
DETAIL_C
10
465
20
35
40
6
0
CIRCLE
8
DETAIL_C
10
35
20
245
40
8
0
CIRCLE
8
DETAIL_C
10
465
20
245
40
8
0
CIRCLE
8
DETAIL_C
10
130
20
180
40
10
0
CIRCLE
8
DETAIL_C
10
370
20
180
40
10
0
CIRCLE
8
DETAIL_C
10
250
20
300
40
7.5
0
LWPOLYLINE
8
FAB_01
90
4
70
1
10
175
20
45
10
225
20
45
10
225
20
90
10
175
20
90
0
LWPOLYLINE
8
FAB_01
90
4
70
1
10
275
20
45
10
325
20
45
10
325
20
90
10
275
20
90
0
LWPOLYLINE
8
FAB_01
90
4
70
1
10
220
20
215
10
280
20
215
10
280
20
245
10
220
20
245
0
LINE
8
REF_LINES
10
90
20
20
11
90
21
335
0
LINE
8
REF_LINES
10
190
20
20
11
190
21
335
0
LINE
8
REF_LINES
10
310
20
20
11
310
21
335
0
LINE
8
REF_LINES
10
410
20
20
11
410
21
335
0
LINE
8
AUXILIARY
10
60
20
120
11
440
21
120
0
LINE
8
AUXILIARY
10
60
20
135
11
440
21
135
0
LINE
8
AUXILIARY
10
60
20
150
11
440
21
150
0
LINE
8
AUXILIARY
10
60
20
165
11
440
21
165
0
LINE
8
AUXILIARY
10
60
20
180
11
440
21
180
0
LINE
8
AUXILIARY
10
60
20
195
11
440
21
195
0
LINE
8
AUXILIARY
10
120
20
100
11
120
21
260
0
LINE
8
AUXILIARY
10
160
20
100
11
160
21
260
0
LINE
8
AUXILIARY
10
340
20
100
11
340
21
260
0
LINE
8
AUXILIARY
10
380
20
100
11
380
21
260
0
LINE
8
DETAIL_C
10
55
20
335
11
145
21
335
0
LINE
8
DETAIL_C
10
355
20
335
11
445
21
335
0
TEXT
8
ANNOTATION
10
58
20
342
40
4
1
WELD A FILLET 5mm
0
TEXT
8
ANNOTATION
10
358
20
342
40
4
1
WELD B FILLET 5mm
0
TEXT
8
ANNOTATION
10
15
20
385
40
7
1
PART: BRACKET T-03
0
TEXT
8
ANNOTATION
10
15
20
373
40
6
1
MATERIAL: MILD STEEL
0
TEXT
8
ANNOTATION
10
15
20
362
40
6
1
THK 8 mm
0
TEXT
8
ANNOTATION
10
200
20
385
40
6
1
BENDS: 4 X 90 DEG
0
TEXT
8
ANNOTATION
10
250
20
105
40
5
1
3X INTERNAL CUTOUT
0
ENDSEC
0
EOF
