0
SECTION
2
HEADER
9
$ACADVER
1
AC1015
0
ENDSEC
0
SECTION
2
ENTITIES
0
LWPOLYLINE
8
PROFILE_OUT
90
5
70
1
10
0
20
0
10
500
20
0
10
500
20
270
10
470
20
300
10
0
20
300
0
CIRCLE
8
GEOM_A
10
45
20
45
30
0
40
6
0
CIRCLE
8
GEOM_A
10
455
20
45
30
0
40
6
0
CIRCLE
8
GEOM_A
10
250
20
255
30
0
40
6
0
CIRCLE
8
GEOM_A
10
120
20
90
30
0
40
10
0
CIRCLE
8
GEOM_A
10
380
20
90
30
0
40
10
0
CIRCLE
8
GEOM_A
10
250
20
150
30
0
40
10
0
LWPOLYLINE
8
FAB_FEATURE
90
4
70
1
10
170
20
55
10
230
20
55
10
230
20
95
10
170
20
95
0
LWPOLYLINE
8
FAB_FEATURE
90
4
70
1
10
270
20
55
10
330
20
55
10
330
20
95
10
270
20
95
0
LINE
8
FAB_FEATURE
10
215
20
210
30
0
11
285
21
210
31
0
0
LINE
8
FAB_FEATURE
10
285
20
230
30
0
11
215
21
230
31
0
0
ARC
8
FAB_FEATURE
10
285
20
220
30
0
40
10
50
-90
51
90
0
ARC
8
FAB_FEATURE
10
215
20
220
30
0
40
10
50
90
51
270
0
LINE
8
CENTERLINES
10
100
20
15
30
0
11
100
21
285
31
0
0
LINE
8
CENTERLINES
10
250
20
15
30
0
11
250
21
285
31
0
0
LINE
8
CENTERLINES
10
400
20
15
30
0
11
400
21
285
31
0
0
LINE
8
DETAIL_01
10
55
20
150
30
0
11
140
21
150
31
0
0
LINE
8
DETAIL_01
10
360
20
150
30
0
11
445
21
150
31
0
0
LINE
8
AUX
10
20
20
150
30
0
11
480
21
150
31
0
0
LINE
8
AUX
10
250
20
20
30
0
11
250
21
280
31
0
0
TEXT
8
ANNOTATION
10
15
20
320
30
0
40
6
1
PART: BRACKET-TEST-02
0
TEXT
8
ANNOTATION
10
15
20
310
30
0
40
6
1
MATERIAL: MILD STEEL
0
TEXT
8
ANNOTATION
10
15
20
300
30
0
40
6
1
THK 6 mm
0
TEXT
8
ANNOTATION
10
15
20
290
30
0
40
6
1
BENDS: 3 X 90 DEG
0
TEXT
8
ANNOTATION
10
15
20
40
30
0
40
6
1
2X INTERNAL CUTOUTS 60 X 40
0
TEXT
8
ANNOTATION
10
15
20
235
30
0
40
6
1
SLOT 70 X 20
0
ENDSEC
0
EOF
